#!OML:ASF E:/inclinewalkrobotboard/Project1/Captureday1/Session1/subject1.ASF
:FULLY-SPECIFIED
:DEGREES
1
root 0 0 0 1.0491937832224942 -3.6558265546589643 1.8354775293689218
lowerback 11.9786518577014 0.8513498804940358 -0.0696022425376461
upperback -4.235548484170405 1.0800413149093193 -0.5464375731953799
thorax -11.346868822288844 0.49455937168076064 -0.7845695641467001
lowerneck -5.823293885339725 1.4893722585530103 4.555901779827337
upperneck 18.058935084044776 2.9432103670745997 -8.322017199828522
head 6.604432077211517 1.0750937371901021 -3.216349437942309
rclavicle -1.4630512156096832E-16 -1.8410181345004704E-15
rhumerus 19.810459215166304 14.284102550148468 -47.76358831224763
rradius 72.1673934682059
rwrist 27.121008239427756
rhand -34.63911366351235 -57.06261644538962
rfingers 7.125020000000033
rthumb -7.791597477910694 -87.11649582661643
lclavicle -5.313554764949789E-16 -1.9872020231886616E-16
lhumerus 21.000724192737707 -12.442185084059151 45.33855084142866
lradius 69.98613678453904
lwrist -22.23294323202552
lhand -44.77670312301136 -70.17641329284099
lfingers 7.125020000000026
lthumb -17.564017141972116 -40.85871876787614
rfemur -24.713717231987985 -2.3185418061832244 17.10890688297053
rtibia 54.53937930427988
rfoot -28.942130997123584 -16.642740299269178
rtoes -18.432537091733952
lfemur -25.964046540623627 2.4309958491385064 -18.077524969871373
ltibia 53.23148652567983
lfoot -30.775258828637824 -3.4713869980275085
ltoes -20.708724497189802
2
root 0 0 0 1.044465551150055 -3.663421181350175 1.8333551706239528
lowerback 11.978531287740646 0.8506348251463416 -0.06661073139569096
upperback -4.23353264543413 1.0796054912174864 -0.5449043274492527
thorax -11.344624155864718 0.494286660056089 -0.7844512059405022
lowerneck -5.8037297221470965 1.4881463214221213 4.56017871145108
upperneck 18.048197970802782 2.942560106769453 -8.332142416105802
head 6.597606137582215 1.074721649244136 -3.2202504015748548
rclavicle 2.0173835455541214E-16 -2.065690926990998E-15
rhumerus 19.85836619974763 14.321132312355186 -47.749779017811306
rradius 72.21162237021159
rwrist 27.133319997294215
rhand -34.656981886978265 -57.131952621471314
rfingers 7.125020000000034
rthumb -7.808903903674631 -87.1863331578156
lclavicle -1.131234485094968E-16 -4.869628769771347E-16
lhumerus 21.013551536094845 -12.435640017564266 45.323800072949446
lradius 70.01286491203115
lwrist -22.25912069614997
lhand -44.79073108939743 -70.2939933769957
lfingers 7.125020000000027
lthumb -17.578176566177312 -40.97472277088971
rfemur -24.70202006847689 -2.316060681702746 17.110453335600102
rtibia 54.51731315122613
rfoot -28.9834240367163 -16.65379546816671
rtoes -18.481737351833317
lfemur -25.931628885657368 2.4333744632157392 -18.07049516235987
ltibia 53.2077542921133
lfoot -30.79260357012935 -3.4599505529974826
ltoes -20.80280412343928
3
root 0 0 0 1.0423592124717345 -3.6671413054765085 1.8321900578385364
lowerback 11.978519336537508 0.85019280204208 -0.06511223632887236
upperback -4.232339250063985 1.0792804442367876 -0.5440687054853244
thorax -11.343298824226283 0.4940977278473604 -0.784308250766636
lowerneck -5.794095050877684 1.4874869323186715 4.562194342641455
upperneck 18.042682557667586 2.942173295157646 -8.337088456936549
head 6.59417195872528 1.0744939316872504 -3.22214570691795
rclavicle 1.3528072070583075E-16 -2.035331814819498E-15
rhumerus 19.864996707368903 14.327358024881057 -47.74554157032057
rradius 72.21567883896448
rwrist 27.133199265147923
rhand -34.64899522581937 -57.12371748279597
rfingers 7.125020000000034
rthumb -7.801122079225628 -87.17840878538306
lclavicle -1.863581040392354E-16 -4.393203112149935E-16
lhumerus 21.021855070217157 -12.442897653584348 45.31668444793345
lradius 70.01979407876055
lwrist -22.26015935274063
lhand -44.79018208180886 -70.2856195830263
lfingers 7.125020000000027
lthumb -17.577972737340332 -40.964581479273846
rfemur -24.698666205810472 -2.3151505524340634 17.110721662177262
rtibia 54.510414147201494
rfoot -28.990398094591537 -16.654724573431718
rtoes -18.491532027033852
lfemur -25.91634618183923 2.434767204560001 -18.067715904980954
ltibia 53.19854736834899
lfoot -30.793812640686376 -3.45874925850156
ltoes -20.839273247590164
4
root 0 0 0 1.041257504135289 -3.6690815621097674 1.8315238393757491
lowerback 11.978578382810815 0.8499293240269347 -0.06428471342469594
upperback -4.231660548501012 1.079078188512869 -0.5435999729107337
thorax -11.342584835964866 0.4939811646248349 -0.7842176421110936
lowerneck -5.788924182839784 1.487082896356755 4.563207550068339
upperneck 18.039600990126 2.9418988937634696 -8.339688126623315
head 6.59229076504846 1.074338255190225 -3.223137510955337
rclavicle 1.6298292040356788E-16 -2.0395933024002808E-15
rhumerus 19.872501915826057 14.334202524714385 -47.74256041718165
rradius 72.22102412696759
rwrist 27.13265423879764
rhand -34.64293321823566 -57.11889474973897
rfingers 7.125020000000035
rthumb -7.795342381527824 -87.17357683775069
lclavicle -1.566017104541601E-16 -4.484244217253525E-16
lhumerus 21.024610113158065 -12.446744001053998 45.31152878802515
lradius 70.02331994360583
lwrist -22.262135236231693
lhand -44.78807109447355 -70.2744079413406
lfingers 7.125020000000027
lthumb -17.575957159672605 -40.95321134512189
rfemur -24.697833535750295 -2.3149304550409373 17.11089307021323
rtibia 54.50929059085566
rfoot -28.992058808725425 -16.654766493420926
rtoes -18.493669297388415
lfemur -25.910017127960668 2.436150997009057 -18.066322123912794
ltibia 53.19727978491543
lfoot -30.79285186452557 -3.4585938017233984
ltoes -20.853550558788218
5
root 0 0 0 1.0405732968558916 -3.670291795763368 1.8311173085813106
lowerback 11.978600614461 0.8497727000516849 -0.06377667304270476
upperback -4.231250674012372 1.0789598210370384 -0.5433141893147415
thorax -11.342145069630082 0.49391280451997066 -0.7841649303882532
lowerneck -5.78575241050091 1.486847212098444 4.563846231250997
upperneck 18.037742449183416 2.941747443551144 -8.341298092074044
head 6.5911464855863775 1.0742510243221495 -3.2237526290237537
rclavicle 1.7406846461365559E-16 -2.038479335505334E-15
rhumerus 19.877271752870467 14.338745911213863 -47.74080067667761
rradius 72.22432101021076
rwrist 27.131936003108294
rhand -34.63824207831258 -57.11424106375749
rfingers 7.125020000000035
rthumb -7.790862181106842 -87.16888583596838
lclavicle -1.4450135857535372E-16 -4.490763147845775E-16
lhumerus 21.026311443381125 -12.44954633422621 45.3082647753733
lradius 70.02529547705781
lwrist -22.26299467512255
lhand -44.786411078980905 -70.26477278607564
lfingers 7.125020000000027
lthumb -17.57436719755813 -40.94340921043596
rfemur -24.697617776390825 -2.314931784251072 17.11100801167975
rtibia 54.50935078113367
rfoot -28.992814561133528 -16.654674533708636
rtoes -18.494376591612962
lfemur -25.90660285589145 2.4373180782166974 -18.065446773601344
ltibia 53.19752531574431
lfoot -30.792000255451125 -3.45837318733761
ltoes -20.861677043731294
